<svg width="159" height="35" viewBox="0 0 159 35" fill="none" xmlns="http://www.w3.org/2000/svg">
<path d="M9.0451 28.5061C10.1257 29.5089 11.8833 28.7566 11.9038 27.2825L12.0548 16.415C12.0719 15.1838 10.816 14.3426 9.68396 14.8271L1.5661 18.3017C0.434067 18.7863 0.175633 20.2756 1.07825 21.1132L9.0451 28.5061Z" fill="#0C5BF3"/>
<path opacity="0.7" d="M7.17289 9.15416C7.20689 7.68036 8.97133 6.9442 10.0427 7.95683L17.9414 15.4225C18.8363 16.2683 18.5643 17.7552 17.4278 18.2293L9.27847 21.6294C8.14204 22.1035 6.89388 21.2509 6.92227 20.0198L7.17289 9.15416Z" fill="#F90619"/>
<path d="M29.1974 17.052H31.7734C32.6134 17.052 33.2947 16.828 33.8174 16.38C34.34 15.9133 34.6014 15.2973 34.6014 14.532C34.6014 13.748 34.34 13.132 33.8174 12.684C33.3134 12.2173 32.632 11.984 31.7734 11.984H29.1974V17.052ZM32.2214 20.86H29.1694V28H24.7454V8.148H32.2214C34.2374 8.148 35.8707 8.74533 37.1214 9.94C38.3907 11.1347 39.0254 12.656 39.0254 14.504C39.0254 16.3893 38.3907 17.92 37.1214 19.096C35.8707 20.272 34.2374 20.86 32.2214 20.86ZM50.4645 14.084V18.284C50.0725 18.1907 49.6245 18.144 49.1205 18.144C48.1685 18.144 47.3845 18.452 46.7685 19.068C46.1711 19.684 45.8725 20.636 45.8725 21.924V28H41.6164V14.084H45.7325V15.96C46.0685 15.2507 46.5818 14.7373 47.2725 14.42C47.9631 14.1027 48.6538 13.944 49.3445 13.944C49.7738 13.944 50.1471 13.9907 50.4645 14.084ZM56.3821 19.376H61.9541C61.9167 18.7413 61.6647 18.1907 61.1981 17.724C60.7501 17.2573 60.0687 17.024 59.1541 17.024C58.3327 17.024 57.6794 17.2667 57.1941 17.752C56.7087 18.2373 56.4381 18.7787 56.3821 19.376ZM62.2621 22.988L65.8181 23.996C65.4634 25.284 64.7261 26.348 63.6061 27.188C62.4861 28.0093 61.0861 28.42 59.4061 28.42C57.3901 28.42 55.6727 27.748 54.2541 26.404C52.8541 25.06 52.1541 23.2587 52.1541 21C52.1541 18.8347 52.8354 17.0707 54.1981 15.708C55.5794 14.3453 57.2127 13.664 59.0981 13.664C61.2634 13.664 62.9621 14.2987 64.1941 15.568C65.4447 16.8187 66.0701 18.564 66.0701 20.804C66.0701 21.5133 66.0421 21.952 65.9861 22.12H56.2981C56.3354 22.8853 56.6621 23.5293 57.2781 24.052C57.8941 24.556 58.6221 24.808 59.4621 24.808C60.8994 24.808 61.8327 24.2013 62.2621 22.988ZM73.3387 33.32H69.0827V14.084H73.1987V15.512C73.516 15.0267 74.0387 14.616 74.7667 14.28C75.5134 13.9253 76.3534 13.748 77.2867 13.748C79.2654 13.748 80.8334 14.4293 81.9907 15.792C83.1667 17.136 83.7547 18.872 83.7547 21C83.7547 23.128 83.1294 24.8827 81.8787 26.264C80.6467 27.6267 79.06 28.308 77.1187 28.308C75.364 28.308 74.104 27.8413 73.3387 26.908V33.32ZM78.6587 23.604C79.2747 22.988 79.5827 22.1293 79.5827 21.028C79.5827 19.9267 79.2747 19.0773 78.6587 18.48C78.0614 17.8827 77.3147 17.584 76.4187 17.584C75.5414 17.584 74.7947 17.8827 74.1787 18.48C73.5814 19.0773 73.2827 19.9267 73.2827 21.028C73.2827 22.1293 73.5814 22.988 74.1787 23.604C74.7947 24.2013 75.5414 24.5 76.4187 24.5C77.3147 24.5 78.0614 24.2013 78.6587 23.604ZM91.0367 28H86.7807V7.728H91.0367V28ZM94.0957 24.164C94.0957 22.988 94.4783 22.0453 95.2437 21.336C96.009 20.608 96.9983 20.1507 98.2117 19.964L101.488 19.46C102.16 19.3667 102.496 19.0493 102.496 18.508C102.496 18.0787 102.309 17.724 101.936 17.444C101.581 17.1453 101.086 16.996 100.452 16.996C99.7423 16.996 99.173 17.2013 98.7437 17.612C98.333 18.004 98.109 18.48 98.0717 19.04L94.3757 18.284C94.469 17.1267 95.0383 16.072 96.0837 15.12C97.1477 14.1493 98.613 13.664 100.48 13.664C102.589 13.664 104.138 14.168 105.128 15.176C106.136 16.184 106.64 17.472 106.64 19.04V25.844C106.64 26.7213 106.696 27.44 106.808 28H102.972C102.878 27.6267 102.832 27.104 102.832 26.432C102.029 27.7387 100.722 28.392 98.9117 28.392C97.437 28.392 96.261 27.9813 95.3837 27.16C94.525 26.32 94.0957 25.3213 94.0957 24.164ZM99.9477 25.312C100.676 25.312 101.282 25.0973 101.768 24.668C102.253 24.2387 102.496 23.5293 102.496 22.54V21.924L99.8637 22.344C98.8183 22.512 98.2957 23.0253 98.2957 23.884C98.2957 24.276 98.4263 24.612 98.6877 24.892C98.9677 25.172 99.3877 25.312 99.9477 25.312ZM116.831 17.584C115.916 17.584 115.151 17.892 114.535 18.508C113.937 19.124 113.639 19.9733 113.639 21.056C113.639 22.12 113.947 22.96 114.563 23.576C115.197 24.192 115.972 24.5 116.887 24.5C117.652 24.5 118.277 24.304 118.763 23.912C119.267 23.5013 119.603 23.0067 119.771 22.428L123.523 23.576C123.187 24.9013 122.431 26.04 121.255 26.992C120.097 27.944 118.641 28.42 116.887 28.42C114.796 28.42 113.023 27.7293 111.567 26.348C110.129 24.948 109.411 23.184 109.411 21.056C109.411 18.9093 110.111 17.1453 111.511 15.764C112.929 14.364 114.675 13.664 116.747 13.664C118.557 13.664 120.041 14.1307 121.199 15.064C122.356 15.9973 123.103 17.1453 123.439 18.508L119.631 19.656C119.463 19.0587 119.145 18.564 118.679 18.172C118.212 17.78 117.596 17.584 116.831 17.584ZM129.477 19.376H135.049C135.012 18.7413 134.76 18.1907 134.293 17.724C133.845 17.2573 133.164 17.024 132.249 17.024C131.428 17.024 130.775 17.2667 130.289 17.752C129.804 18.2373 129.533 18.7787 129.477 19.376ZM135.357 22.988L138.913 23.996C138.559 25.284 137.821 26.348 136.701 27.188C135.581 28.0093 134.181 28.42 132.501 28.42C130.485 28.42 128.768 27.748 127.349 26.404C125.949 25.06 125.249 23.2587 125.249 21C125.249 18.8347 125.931 17.0707 127.293 15.708C128.675 14.3453 130.308 13.664 132.193 13.664C134.359 13.664 136.057 14.2987 137.289 15.568C138.54 16.8187 139.165 18.564 139.165 20.804C139.165 21.5133 139.137 21.952 139.081 22.12H129.393C129.431 22.8853 129.757 23.5293 130.373 24.052C130.989 24.556 131.717 24.808 132.557 24.808C133.995 24.808 134.928 24.2013 135.357 22.988ZM155.87 7.728V25.508C155.87 26.348 155.907 27.1787 155.982 28H151.894C151.819 27.552 151.782 27.104 151.782 26.656C151.446 27.1413 150.942 27.5427 150.27 27.86C149.617 28.1587 148.879 28.308 148.058 28.308C146.079 28.308 144.437 27.6267 143.13 26.264C141.823 24.8827 141.17 23.128 141.17 21C141.17 18.9093 141.805 17.1827 143.074 15.82C144.343 14.4387 145.958 13.748 147.918 13.748C149.822 13.748 151.073 14.224 151.67 15.176V7.728H155.87ZM146.35 18.48C145.753 19.0773 145.454 19.9267 145.454 21.028C145.454 22.1293 145.753 22.988 146.35 23.604C146.966 24.2013 147.713 24.5 148.59 24.5C149.467 24.5 150.205 24.2013 150.802 23.604C151.418 22.988 151.726 22.1293 151.726 21.028C151.726 19.9267 151.418 19.0773 150.802 18.48C150.205 17.8827 149.467 17.584 148.59 17.584C147.713 17.584 146.966 17.8827 146.35 18.48Z" fill="#333333"/>
</svg>
